<svg height="512pt" viewBox="-38 0 512 512" width="512pt" xmlns="http://www.w3.org/2000/svg"><path d="m435.09375 294.460938c0 83.328124-46.851562 155.710937-115.648438 192.242187-30.398437 16.15625-65.082031 25.296875-101.894531 25.296875-22.84375 0-44.855469-3.515625-65.539062-10.046875-88.125-27.800781-152.011719-110.183594-152.011719-207.492187 0-93.625 59.136719-173.433594 142.082031-204.105469 14.90625-5.519531 30.589844-9.441407 46.828125-11.574219 9.375-1.234375 18.933594-1.875 28.640625-1.875 120.144531 0 217.542969 97.398438 217.542969 217.554688zm0 0" fill="#f8a28b"/><path d="m217.550781 76.90625c-9.707031 0-19.265625.640625-28.640625 1.875-.546875.074219-1.089844.164062-1.636718.238281 105.789062 14.753907 187.222656 105.574219 187.222656 215.4375 0 83.332031-46.851563 155.710938-115.648438 192.246094-21.925781 11.652344-46.089844 19.632813-71.667968 23.1875 9.925781 1.386719 20.0625 2.109375 30.371093 2.109375 36.8125 0 71.496094-9.144531 101.894531-25.296875 68.796876-36.535156 115.648438-108.914063 115.648438-192.246094 0-120.152343-97.398438-217.550781-217.542969-217.550781zm0 0" fill="#f58c79"/><path d="m344.78125 250.890625v136.777344c0 13.425781-4.453125 26.476562-12.667969 37.109375-8.214843 10.636718-12.667969 23.6875-12.667969 37.113281v24.8125c-30.398437 16.15625-65.082031 25.296875-101.894531 25.296875-22.84375 0-44.855469-3.515625-65.539062-10.046875v-10.953125l-1.171875-35.621094c-1.351563-8.480468-3.875-16.71875-7.5-24.464844-3.621094-7.753906-8.332032-15.019531-14.054688-21.5625-14.648437-16.761718-22.726562-38.261718-22.726562-60.523437v-93.335937c0-17.996094 6.59375-35.339844 18.488281-48.765626.777344-.882812 1.585937-1.757812 2.417969-2.609374l14.382812-14.757813.234375-.234375v-166.472656c0-12.507813 10.144531-22.652344 22.652344-22.652344 12.285156 0 22.324219 9.769531 22.652344 22.046875l1.523437 56.734375 2.503906 93.132812c.140626-2.097656.617188-4.34375 1.34375-6.570312 1.609376-4.976562 4.441407-9.867188 7.425782-12.851562 2.675781-2.683594 5.957031-4.761719 9.613281-6.03125 2.597656-.90625 5.390625-1.394532 8.296875-1.394532 13.992188 0 25.339844 11.347656 25.339844 25.335938v36.769531c0-7 2.832031-13.328125 7.425781-17.921875 2.671875-2.675781 5.953125-4.753906 9.609375-6.007812 2.601562-.917969 5.390625-1.40625 8.300781-1.40625 13.988281 0 25.335938 11.335937 25.335938 25.335937v43.71875c0-11.082031 7.117187-20.5 17.039062-23.945313 2.597657-.90625 5.390625-1.394531 8.296875-1.394531 14.003906.003907 25.339844 11.351563 25.339844 25.339844zm0 0" fill="#fdd7bd"/><path d="m184.050781 35.855469c.109375 3.875-.945312 7.511719-2.832031 10.570312-3.378906 5.433594-9.398438 9.066407-16.28125 9.066407-5.273438 0-10.058594-2.144532-13.523438-5.605469-1.128906-1.128907-2.109374-2.386719-2.917968-3.761719-1.703125-2.855469-2.683594-6.1875-2.683594-9.757812v-12.480469c0-10.460938 8.492188-18.953125 18.953125-18.953125 5.136719 0 9.804687 2.046875 13.222656 5.371094 3.421875 3.332031 5.597657 7.949218 5.734375 13.074218zm0 0" fill="#fff2ea"/><path d="m181.21875 46.421875c-3.378906 5.433594-9.398438 9.066406-16.28125 9.066406-5.273438 0-10.058594-2.140625-13.523438-5.601562-1.128906-1.128907-2.109374-2.386719-2.917968-3.761719 3.316406-5.53125 9.367187-9.226562 16.269531-9.226562 5.136719 0 9.804687 2.046874 13.222656 5.371093 1.257813 1.222657 2.347657 2.621094 3.230469 4.152344zm0 0" fill="#fff"/><g fill="#fac5aa"><path d="m311.144531 226.949219v84.855469c0 9.410156-7.628906 17.039062-17.039062 17.039062v-77.953125c0-11.082031 7.117187-20.5 17.039062-23.941406zm0 0"/><path d="m260.46875 183.242188v91.804687c0 9.40625-7.628906 17.035156-17.035156 17.035156v-84.90625c0-7 2.832031-13.332031 7.425781-17.921875 2.671875-2.675781 5.957031-4.753906 9.609375-6.011718zm0 0"/><path d="m209.796875 146.460938v77.652343c0 9.410157-7.632813 17.027344-17.039063 17.027344v-75.796875c1.609376-4.976562 4.441407-9.867188 7.425782-12.851562 2.675781-2.683594 5.957031-4.761719 9.613281-6.03125zm0 0"/><path d="m142.082031 189.679688v95.191406c-9.40625 0-17.035156-7.628906-17.035156-17.039063v-61.105469c.777344-.882812 1.585937-1.757812 2.417969-2.609374l14.382812-14.757813zm0 0"/></g></svg>