<svg id="Capa_1" enable-background="new 0 0 512 512" height="512" viewBox="0 0 512 512" width="512" xmlns="http://www.w3.org/2000/svg"><g><g><path d="m429.5 97.5h-61c-8.284 0-15-6.716-15-15v-60c0-8.284 6.716-15 15-15h61c8.284 0 15 6.716 15 15v60c0 8.284-6.716 15-15 15z" fill="#fd9468"/><path d="m429.5 232.407h-61c-8.284 0-15-6.716-15-15v-60c0-8.284 6.716-15 15-15h61c8.284 0 15 6.716 15 15v60c0 8.284-6.716 15-15 15z" fill="#98d5b9"/><circle cx="52.5" cy="187.407" r="15" style="fill:none;stroke:#000;stroke-width:15;stroke-linecap:round;stroke-linejoin:round;stroke-miterlimit:10"/><g><path d="m293.5 97.5h-271c-8.284 0-15-6.716-15-15v-60c0-8.284 6.716-15 15-15h271c8.284 0 15 6.716 15 15v60c0 8.284-6.716 15-15 15z" fill="#fd9468"/><circle cx="52.5" cy="52.5" fill="#fff" r="15"/></g><g><path d="m293.5 232.407h-271c-8.284 0-15-6.716-15-15v-60c0-8.284 6.716-15 15-15h271c8.284 0 15 6.716 15 15v60c0 8.284-6.716 15-15 15z" fill="#98d5b9"/><circle cx="52.5" cy="187.407" fill="#fff" r="15"/></g><g><path d="m293.5 367.314h-271c-8.284 0-15-6.716-15-15v-60c0-8.284 6.716-15 15-15h271c8.284 0 15 6.716 15 15v60c0 8.284-6.716 15-15 15z" fill="#fee45a"/><circle cx="52.5" cy="322.314" fill="#fff" r="15"/></g><g><path d="m293.5 504.5h-271c-8.284 0-15-6.716-15-15v-60c0-8.284 6.716-15 15-15h271c8.284 0 15 6.716 15 15v60c0 8.284-6.716 15-15 15z" fill="#8ac9fe"/><circle cx="52.5" cy="459.5" fill="#fff" r="15"/></g><g><path d="m474.428 333.562v-27.829c0-8.304 6.732-15.036 15.036-15.036 8.304 0 15.036 6.732 15.036 15.036v94.026l-15.107 68.386h-107.088l-62.897-132.953c-2.608-5.512-1.715-12.044 2.275-16.655 5.942-6.865 16.504-7.122 22.772-.554l32.865 34.434c2.492 2.611 6.894.847 6.894-2.762v-140.045c0-8.304 6.732-15.036 15.036-15.036 8.304 0 15.036 6.732 15.036 15.036v92.291z" fill="#ffcebf"/><g fill="#ffb09e"><path d="m489.144 290.701c-.005.006-.006.008-.011.013.158.874.253 1.77.253 2.69v94.026c-8.825 39.946-44.233 68.386-85.142 68.386h-27.773l5.833 12.329h107.088l15.107-68.386v-94.026c.001-8.41-6.905-15.208-15.355-15.032z"/><path d="m399.172 197.281v127.04c0 8.07 7.116 14.288 15.113 13.207v-127.918c0-8.304-6.732-15.036-15.036-15.036-.112 0-.22.014-.331.017.159.874.254 1.77.254 2.69z"/></g><path d="m504.393 502v-13.855c0-11.046-8.954-20-20-20h-97.088c-11.046 0-20 8.954-20 20v13.855c0 5.523 4.477 10 10 10h117.088c5.523 0 10-4.477 10-10z" fill="#fe646f"/><path d="m414.285 333.562v-27.829c0-8.304 6.732-15.036 15.036-15.036 8.304 0 15.036 6.732 15.036 15.036v41.63z" fill="#ffcebf"/><path d="m444.357 333.562v-27.829c0-8.304 6.732-15.036 15.036-15.036 8.304 0 15.036 6.732 15.036 15.036v36.149z" fill="#ffcebf"/><g fill="#ffb09e"><path d="m459.393 290.697c-2.265 0-4.404.515-6.33 1.411 5.137 2.391 8.706 7.585 8.706 13.624v19.51c0 7.761 5.18 14.569 12.66 16.638v-36.149c0-8.302-6.732-15.034-15.036-15.034z"/><path d="m429.321 290.697c-2.265 0-4.404.515-6.33 1.411 5.137 2.391 8.706 7.585 8.706 13.624v19.51c0 7.761 5.18 14.569 12.66 16.638v-36.149c0-8.302-6.732-15.034-15.036-15.034z"/></g></g></g><path d="m22.5 105h271c12.406 0 22.5-10.093 22.5-22.5v-60c0-12.407-10.094-22.5-22.5-22.5h-271c-12.406 0-22.5 10.093-22.5 22.5v60c0 12.407 10.094 22.5 22.5 22.5zm-7.5-82.5c0-4.136 3.364-7.5 7.5-7.5h271c4.136 0 7.5 3.364 7.5 7.5v60c0 4.136-3.364 7.5-7.5 7.5h-271c-4.136 0-7.5-3.364-7.5-7.5zm37.5 52.5c12.406 0 22.5-10.093 22.5-22.5s-10.094-22.5-22.5-22.5-22.5 10.093-22.5 22.5 10.094 22.5 22.5 22.5zm0-30c4.136 0 7.5 3.364 7.5 7.5s-3.364 7.5-7.5 7.5-7.5-3.364-7.5-7.5 3.364-7.5 7.5-7.5zm459.5 354.759v-94.026c0-12.426-10.109-22.536-22.536-22.536-5.773 0-11.044 2.184-15.035 5.767-3.992-3.583-9.263-5.767-15.036-5.767s-11.044 2.184-15.035 5.767c-3.992-3.583-9.263-5.767-15.036-5.767-2.643 0-5.178.461-7.536 1.3v-44.591h7.715c12.406 0 22.5-10.093 22.5-22.5v-60c0-12.407-10.094-22.5-22.5-22.5h-61c-12.406 0-22.5 10.093-22.5 22.5v60c0 12.407 10.094 22.5 22.5 22.5h8.214v101.011l-26.833-28.114c-4.444-4.656-10.692-7.226-17.116-7.08-6.435.157-12.54 3.038-16.752 7.904-5.932 6.854-7.261 16.576-3.384 24.77l59.883 126.583c-7.633 4.892-12.707 13.444-12.707 23.164v16.356c0 4.142 3.357 7.5 7.5 7.5s7.5-3.358 7.5-7.5v-16.355c0-6.893 5.607-12.5 12.5-12.5h97.088c6.893 0 12.5 5.607 12.5 12.5v16.355c0 4.142 3.357 7.5 7.5 7.5s7.5-3.358 7.5-7.5v-16.355c0-10.24-5.63-19.185-13.954-23.918l13.885-62.85c.115-.532.175-1.074.175-1.618zm-143.5-174.852c-4.136 0-7.5-3.364-7.5-7.5v-60c0-4.136 3.364-7.5 7.5-7.5h61c4.136 0 7.5 3.364 7.5 7.5v60c0 4.136-3.364 7.5-7.5 7.5h-7.715v-15.297c0-12.426-10.109-22.536-22.535-22.536-12.427 0-22.536 10.109-22.536 22.536v15.296h-8.214zm128.5 174.033-13.631 61.704h-96.064c-.083 0-.166.006-.249.006l-60.869-128.667c-1.336-2.825-.878-6.176 1.167-8.539 3.004-3.471 8.525-3.627 11.675-.285l32.865 34.433c3.263 3.42 8.207 4.494 12.596 2.736 4.388-1.758 7.224-5.948 7.224-10.676v-140.042c0-4.155 3.381-7.536 7.536-7.536s7.535 3.38 7.535 7.536v123.951c0 4.142 3.357 7.5 7.5 7.5s7.5-3.358 7.5-7.5v-27.829c0-4.155 3.381-7.536 7.536-7.536s7.536 3.38 7.536 7.536v27.829c0 4.142 3.357 7.5 7.5 7.5s7.5-3.358 7.5-7.5v-27.829c0-4.155 3.38-7.536 7.535-7.536s7.536 3.38 7.536 7.536v27.829c0 4.142 3.357 7.5 7.5 7.5s7.5-3.358 7.5-7.5v-27.829c0-4.155 3.38-7.536 7.535-7.536s7.536 3.38 7.536 7.536v93.208zm-384.5-338.94h151c4.143 0 7.5-3.358 7.5-7.5s-3.357-7.5-7.5-7.5h-151c-4.143 0-7.5 3.358-7.5 7.5s3.357 7.5 7.5 7.5zm256 45h61c12.406 0 22.5-10.093 22.5-22.5v-60c0-12.407-10.094-22.5-22.5-22.5h-61c-12.406 0-22.5 10.093-22.5 22.5v60c0 12.407 10.094 22.5 22.5 22.5zm-7.5-82.5c0-4.136 3.364-7.5 7.5-7.5h61c4.136 0 7.5 3.364 7.5 7.5v60c0 4.136-3.364 7.5-7.5 7.5h-61c-4.136 0-7.5-3.364-7.5-7.5zm-338.5 217.407h271c12.406 0 22.5-10.093 22.5-22.5v-60c0-12.407-10.094-22.5-22.5-22.5h-209.894c-4.143 0-7.5 3.358-7.5 7.5s3.357 7.5 7.5 7.5h209.894c4.136 0 7.5 3.364 7.5 7.5v60c0 4.136-3.364 7.5-7.5 7.5h-271c-4.136 0-7.5-3.364-7.5-7.5v-60c0-4.136 3.364-7.5 7.5-7.5h31.368c4.143 0 7.5-3.358 7.5-7.5s-3.357-7.5-7.5-7.5h-31.368c-12.406 0-22.5 10.093-22.5 22.5v60c0 12.406 10.094 22.5 22.5 22.5zm7.5-52.5c0 12.407 10.094 22.5 22.5 22.5s22.5-10.093 22.5-22.5-10.094-22.5-22.5-22.5-22.5 10.093-22.5 22.5zm30 0c0 4.136-3.364 7.5-7.5 7.5s-7.5-3.364-7.5-7.5 3.364-7.5 7.5-7.5 7.5 3.364 7.5 7.5zm233.5 219.593h-271c-12.406 0-22.5 10.093-22.5 22.5v60c0 12.407 10.094 22.5 22.5 22.5h271c12.406 0 22.5-10.093 22.5-22.5v-60c0-12.407-10.094-22.5-22.5-22.5zm7.5 82.5c0 4.136-3.364 7.5-7.5 7.5h-271c-4.136 0-7.5-3.364-7.5-7.5v-60c0-4.136 3.364-7.5 7.5-7.5h271c4.136 0 7.5 3.364 7.5 7.5zm-248.5-52.5c-12.406 0-22.5 10.093-22.5 22.5s10.094 22.5 22.5 22.5 22.5-10.093 22.5-22.5-10.094-22.5-22.5-22.5zm0 30c-4.136 0-7.5-3.364-7.5-7.5s3.364-7.5 7.5-7.5 7.5 3.364 7.5 7.5-3.364 7.5-7.5 7.5zm60-152.093c-4.143 0-7.5 3.358-7.5 7.5s3.357 7.5 7.5 7.5h151c4.143 0 7.5-3.358 7.5-7.5s-3.357-7.5-7.5-7.5zm-82.5 7.5c0 12.407 10.094 22.5 22.5 22.5s22.5-10.093 22.5-22.5-10.094-22.5-22.5-22.5-22.5 10.093-22.5 22.5zm30 0c0 4.136-3.364 7.5-7.5 7.5s-7.5-3.364-7.5-7.5 3.364-7.5 7.5-7.5 7.5 3.364 7.5 7.5zm203.5 129.593h-151c-4.143 0-7.5 3.358-7.5 7.5s3.357 7.5 7.5 7.5h151c4.143 0 7.5-3.358 7.5-7.5s-3.357-7.5-7.5-7.5zm-241-77.093h271c4.143 0 7.5-3.358 7.5-7.5s-3.357-7.5-7.5-7.5h-271c-4.136 0-7.5-3.364-7.5-7.5v-60c0-4.136 3.364-7.5 7.5-7.5h271c4.136 0 7.5 3.364 7.5 7.5 0 4.142 3.357 7.5 7.5 7.5s7.5-3.358 7.5-7.5c0-12.407-10.094-22.5-22.5-22.5h-271c-12.406 0-22.5 10.093-22.5 22.5v60c0 12.406 10.094 22.5 22.5 22.5zm241-180c4.143 0 7.5-3.358 7.5-7.5s-3.357-7.5-7.5-7.5h-151c-4.143 0-7.5 3.358-7.5 7.5s3.357 7.5 7.5 7.5z"/></g></svg>